<svg fill="none" height="512" viewBox="0 0 512 512" width="512" xmlns="http://www.w3.org/2000/svg" xmlns:xlink="http://www.w3.org/1999/xlink"><linearGradient id="paint0_linear" gradientUnits="userSpaceOnUse" x1="31" x2="481" y1="31" y2="481"><stop offset="0" stop-color="#ff003d"/><stop offset="1" stop-color="#3d00eb"/></linearGradient><path clip-rule="evenodd" d="m56 160.003c0-66.2757 53.726-120.0027 120-120.0027h29.913c13.904 0 26.997 6.5465 35.339 17.67 7.374 9.832 22.122 9.832 29.496 0 8.342-11.1235 21.435-17.67 35.339-17.67h29.913c66.274 0 120 53.727 120 120.0027v50.746c0 6.365-2.529 12.47-7.029 16.971l-24.971 24.971v-36.687c0-4.419-3.582-8.001-8-8.001h-32c-8.837 0-16-7.163-16-16 0-30.928-25.072-56.001-56-56.001h-3.92c-22.187 0-41.724 12.105-52.08 30.268-10.356-18.163-29.893-30.268-52.08-30.268h-3.92c-30.928 0-56 25.073-56 56.001 0 8.837-7.163 16-16 16h-32c-4.4183 0-8 3.582-8 8.001v36.687l-24.9706-24.971c-4.5008-4.501-7.0294-10.606-7.0294-16.971zm20.8115 104.127-25.0958-25.096c-7.5014-7.502-11.7157-17.676-11.7157-28.285v-50.746c0-75.1125 60.889-136.003 136-136.003h29.913c18.94 0 36.775 8.9176 48.139 24.0701.974 1.2985 2.922 1.2985 3.896 0 11.364-15.1525 29.199-24.0701 48.139-24.0701h29.913c75.111 0 136 60.8905 136 136.003v50.746c0 10.609-4.214 20.783-11.716 28.285l-25.095 25.096c20.6 1.625 36.811 18.857 36.811 39.876 0 22.092-17.909 40.001-40 40.001h-8v19.748c0 25.301-13.279 48.745-34.979 61.754l-79.546 47.689c-32.919 19.735-74.031 19.735-106.95 0l-79.546-47.689c-21.7-13.009-34.979-36.453-34.979-61.754v-19.748h-8c-22.0914 0-40-17.909-40-40.001 0-21.019 16.2108-38.251 36.8115-39.876zm123.1885-112.128c-22.091 0-40 17.909-40 40.001 0 17.674-14.327 32.001-32 32.001h-24v139.751c0 19.678 10.328 37.913 27.206 48.031l79.546 47.689c27.854 16.699 62.642 16.699 90.496 0l79.546-47.689c16.878-10.118 27.206-28.353 27.206-48.031v-139.751h-24c-17.673 0-32-14.327-32-32.001 0-22.092-17.909-40.001-40-40.001h-3.92c-22.95 0-42.031 17.67-43.791 40.553l-.313 4.062c-.32 4.168-3.796 7.386-7.976 7.386s-7.656-3.218-7.976-7.386l-.313-4.062c-1.76-22.883-20.841-40.553-43.791-40.553zm224 176.004v-48.001h8c13.255 0 24 10.746 24 24.001s-10.745 24-24 24zm-336-48.001h-8c-13.2548 0-24 10.746-24 24.001s10.7452 24 24 24h8zm120.001 24c0 13.255-10.745 24.001-24.001 24.001-13.255 0-24-10.746-24-24.001s10.745-24 24-24c13.256 0 24.001 10.745 24.001 24zm119.999 24.001c13.256 0 24.001-10.746 24.001-24.001s-10.745-24-24.001-24c-13.255 0-24 10.745-24 24s10.745 24.001 24 24.001zm-143.998-80.002c-5.39 0-9.986.938-12.422 2.156-3.952 1.976-8.758.374-10.734-3.578s-.374-8.757 3.578-10.733c5.564-2.782 12.968-3.845 19.578-3.845s14.014 1.063 19.579 3.845c3.951 1.976 5.553 6.781 3.577 10.733s-6.781 5.554-10.733 3.578c-2.436-1.218-7.033-2.156-12.423-2.156zm131.578 2.156c2.436-1.218 7.032-2.156 12.422-2.156s9.987.938 12.423 2.156c3.952 1.976 8.757.374 10.733-3.578s.374-8.757-3.577-10.733c-5.565-2.782-12.969-3.845-19.579-3.845s-14.014 1.063-19.578 3.845c-3.952 1.976-5.554 6.781-3.578 10.733 1.977 3.952 6.782 5.554 10.734 3.578zm-115.58 117.847c4.418 0 8 3.582 8 8 0 5.066 1.162 10.121 3.466 14.888 2.306 4.773 5.729 9.197 10.142 12.98 4.416 3.784 9.721 6.839 15.638 8.94 5.918 2.101 12.293 3.193 18.754 3.193s12.836-1.092 18.754-3.193c5.917-2.101 11.222-5.156 15.638-8.94 4.413-3.783 7.836-8.207 10.142-12.98 2.304-4.767 3.466-9.822 3.466-14.888 0-4.418 3.582-8 8-8s8 3.582 8 8c0 7.541-1.735 14.97-5.06 21.85-3.322 6.874-8.149 13.034-14.136 18.166-5.985 5.13-13.026 9.147-20.697 11.87-7.671 2.724-15.86 4.115-24.107 4.115s-16.436-1.391-24.107-4.115c-7.671-2.723-14.712-6.74-20.697-11.87-5.987-5.132-10.814-11.292-14.136-18.166-3.325-6.88-5.06-14.309-5.06-21.85 0-4.418 3.582-8 8-8z" fill="url(#paint0_linear)" fill-rule="evenodd"/></svg>